<svg width="120" height="38" viewBox="0 0 120 38" fill="none" xmlns="http://www.w3.org/2000/svg">
<path d="M18.7435 2.17042C19.3429 2.17042 19.8287 1.68456 19.8287 1.08522C19.8287 0.485879 19.3429 0 18.7435 0C18.1442 0 17.6583 0.485879 17.6583 1.08522C17.6583 1.68456 18.1442 2.17042 18.7435 2.17042Z" fill="white"/>
<path d="M18.7435 37.489C19.3429 37.489 19.8287 37.0031 19.8287 36.4038C19.8287 35.8044 19.3429 35.3186 18.7435 35.3186C18.1442 35.3186 17.6583 35.8044 17.6583 36.4038C17.6583 37.0031 18.1442 37.489 18.7435 37.489Z" fill="white"/>
<path d="M36.4069 19.8294C37.0062 19.8294 37.4921 19.3435 37.4921 18.7442C37.4921 18.1448 37.0062 17.659 36.4069 17.659C35.8075 17.659 35.3216 18.1448 35.3216 18.7442C35.3216 19.3435 35.8075 19.8294 36.4069 19.8294Z" fill="white"/>
<path d="M1.0852 19.8294C1.68455 19.8294 2.17041 19.3435 2.17041 18.7442C2.17041 18.1448 1.68455 17.659 1.0852 17.659C0.485863 17.659 0 18.1448 0 18.7442C0 19.3435 0.485863 19.8294 1.0852 19.8294Z" fill="white"/>
<path d="M31.2384 7.33326C31.8377 7.33326 32.3236 6.84738 32.3236 6.24804C32.3236 5.6487 31.8377 5.16284 31.2384 5.16284C30.639 5.16284 30.1532 5.6487 30.1532 6.24804C30.1532 6.84738 30.639 7.33326 31.2384 7.33326Z" fill="white"/>
<path d="M6.24868 32.2928C6.84802 32.2928 7.33388 31.807 7.33388 31.2076C7.33388 30.6083 6.84802 30.1224 6.24868 30.1224C5.64934 30.1224 5.16348 30.6083 5.16348 31.2076C5.16348 31.807 5.64934 32.2928 6.24868 32.2928Z" fill="white"/>
<path d="M31.2384 32.2928C31.8377 32.2928 32.3236 31.807 32.3236 31.2076C32.3236 30.6083 31.8377 30.1224 31.2384 30.1224C30.639 30.1224 30.1532 30.6083 30.1532 31.2076C30.1532 31.807 30.639 32.2928 31.2384 32.2928Z" fill="white"/>
<path d="M6.24868 7.33326C6.84802 7.33326 7.33388 6.84738 7.33388 6.24804C7.33388 5.6487 6.84802 5.16284 6.24868 5.16284C5.64934 5.16284 5.16348 5.6487 5.16348 6.24804C5.16348 6.84738 5.64934 7.33326 6.24868 7.33326Z" fill="white"/>
<path d="M25.9123 3.68307C26.5116 3.68307 26.9975 3.19721 26.9975 2.59787C26.9975 1.99852 26.5116 1.51266 25.9123 1.51266C25.313 1.51266 24.8271 1.99852 24.8271 2.59787C24.8271 3.19721 25.313 3.68307 25.9123 3.68307Z" fill="white"/>
<path d="M11.5748 35.9763C12.1741 35.9763 12.66 35.4905 12.66 34.8911C12.66 34.2918 12.1741 33.8059 11.5748 33.8059C10.9754 33.8059 10.4895 34.2918 10.4895 34.8911C10.4895 35.4905 10.9754 35.9763 11.5748 35.9763Z" fill="white"/>
<path d="M34.8893 26.9661C35.4887 26.9661 35.9745 26.4803 35.9745 25.8809C35.9745 25.2816 35.4887 24.7957 34.8893 24.7957C34.29 24.7957 33.8041 25.2816 33.8041 25.8809C33.8041 26.4803 34.29 26.9661 34.8893 26.9661Z" fill="white"/>
<path d="M2.59787 12.6612C3.19721 12.6612 3.68307 12.1754 3.68307 11.576C3.68307 10.9767 3.19721 10.4908 2.59787 10.4908C1.99852 10.4908 1.51266 10.9767 1.51266 11.576C1.51266 12.1754 1.99852 12.6612 2.59787 12.6612Z" fill="white"/>
<path d="M35.2194 13.4501C35.8187 13.4501 36.3046 12.9643 36.3046 12.3649C36.3046 11.7656 35.8187 11.2797 35.2194 11.2797C34.62 11.2797 34.1342 11.7656 34.1342 12.3649C34.1342 12.9643 34.62 13.4501 35.2194 13.4501Z" fill="white"/>
<path d="M2.26766 26.1766C2.867 26.1766 3.35287 25.6908 3.35287 25.0914C3.35287 24.4921 2.867 24.0062 2.26766 24.0062C1.66832 24.0062 1.18246 24.4921 1.18246 25.0914C1.18246 25.6908 1.66832 26.1766 2.26766 26.1766Z" fill="white"/>
<path d="M25.0896 36.3052C25.689 36.3052 26.1748 35.8194 26.1748 35.22C26.1748 34.6207 25.689 34.1348 25.0896 34.1348C24.4903 34.1348 24.0044 34.6207 24.0044 35.22C24.0044 35.8194 24.4903 36.3052 25.0896 36.3052Z" fill="white"/>
<path d="M12.3976 3.35415C12.9969 3.35415 13.4828 2.86829 13.4828 2.26895C13.4828 1.6696 12.9969 1.18375 12.3976 1.18375C11.7982 1.18375 11.3124 1.6696 11.3124 2.26895C11.3124 2.86829 11.7982 3.35415 12.3976 3.35415Z" fill="white"/>
<path d="M21.1353 6.97206C21.5712 6.97206 21.9245 6.61872 21.9245 6.18283C21.9245 5.74695 21.5712 5.39359 21.1353 5.39359C20.6994 5.39359 20.346 5.74695 20.346 6.18283C20.346 6.61872 20.6994 6.97206 21.1353 6.97206Z" fill="white"/>
<path d="M16.3363 32.0634C16.7722 32.0634 17.1255 31.7101 17.1255 31.2742C17.1255 30.8383 16.7722 30.485 16.3363 30.485C15.9004 30.485 15.547 30.8383 15.547 31.2742C15.547 31.7101 15.9004 32.0634 16.3363 32.0634Z" fill="white"/>
<path d="M31.2996 21.9015C31.7355 21.9015 32.0889 21.5481 32.0889 21.1123C32.0889 20.6764 31.7355 20.323 31.2996 20.323C30.8637 20.323 30.5104 20.6764 30.5104 21.1123C30.5104 21.5481 30.8637 21.9015 31.2996 21.9015Z" fill="white"/>
<path d="M6.17676 17.1327C6.61265 17.1327 6.966 16.7793 6.966 16.3435C6.966 15.9076 6.61265 15.5542 6.17676 15.5542C5.74088 15.5542 5.38752 15.9076 5.38752 16.3435C5.38752 16.7793 5.74088 17.1327 6.17676 17.1327Z" fill="white"/>
<path d="M29.3239 12.3319C29.7598 12.3319 30.1131 11.9786 30.1131 11.5427C30.1131 11.1068 29.7598 10.7534 29.3239 10.7534C28.888 10.7534 28.5347 11.1068 28.5347 11.5427C28.5347 11.9786 28.888 12.3319 29.3239 12.3319Z" fill="white"/>
<path d="M8.14763 26.7028C8.58352 26.7028 8.93687 26.3494 8.93687 25.9135C8.93687 25.4777 8.58352 25.1243 8.14763 25.1243C7.71175 25.1243 7.35839 25.4777 7.35839 25.9135C7.35839 26.3494 7.71175 26.7028 8.14763 26.7028Z" fill="white"/>
<path d="M25.939 30.0901C26.3749 30.0901 26.7282 29.7368 26.7282 29.3009C26.7282 28.865 26.3749 28.5117 25.939 28.5117C25.5031 28.5117 25.1497 28.865 25.1497 29.3009C25.1497 29.7368 25.5031 30.0901 25.939 30.0901Z" fill="white"/>
<path d="M11.5324 8.94472C11.9683 8.94472 12.3217 8.59137 12.3217 8.15549C12.3217 7.7196 11.9683 7.36624 11.5324 7.36624C11.0965 7.36624 10.7432 7.7196 10.7432 8.15549C10.7432 8.59137 11.0965 8.94472 11.5324 8.94472Z" fill="white"/>
<path d="M26.0031 9.01051C26.439 9.01051 26.7924 8.65715 26.7924 8.22127C26.7924 7.78538 26.439 7.43204 26.0031 7.43204C25.5673 7.43204 25.2139 7.78538 25.2139 8.22127C25.2139 8.65715 25.5673 9.01051 26.0031 9.01051Z" fill="white"/>
<path d="M11.4734 30.0242C11.9093 30.0242 12.2627 29.6708 12.2627 29.235C12.2627 28.7991 11.9093 28.4457 11.4734 28.4457C11.0375 28.4457 10.6842 28.7991 10.6842 29.235C10.6842 29.6708 11.0375 30.0242 11.4734 30.0242Z" fill="white"/>
<path d="M29.2597 26.8013C29.6956 26.8013 30.049 26.448 30.049 26.0121C30.049 25.5762 29.6956 25.2229 29.2597 25.2229C28.8239 25.2229 28.4705 25.5762 28.4705 26.0121C28.4705 26.448 28.8239 26.8013 29.2597 26.8013Z" fill="white"/>
<path d="M8.21164 12.2335C8.64752 12.2335 9.00088 11.8802 9.00088 11.4443C9.00088 11.0084 8.64752 10.655 8.21164 10.655C7.77575 10.655 7.4224 11.0084 7.4224 11.4443C7.4224 11.8802 7.77575 12.2335 8.21164 12.2335Z" fill="white"/>
<path d="M31.3341 17.2319C31.7699 17.2319 32.1233 16.8786 32.1233 16.4427C32.1233 16.0068 31.7699 15.6535 31.3341 15.6535C30.8982 15.6535 30.5448 16.0068 30.5448 16.4427C30.5448 16.8786 30.8982 17.2319 31.3341 17.2319Z" fill="white"/>
<path d="M6.14234 21.8029C6.57822 21.8029 6.93158 21.4496 6.93158 21.0137C6.93158 20.5778 6.57822 20.2244 6.14234 20.2244C5.70645 20.2244 5.3531 20.5778 5.3531 21.0137C5.3531 21.4496 5.70645 21.8029 6.14234 21.8029Z" fill="white"/>
<path d="M21.0367 32.0961C21.4726 32.0961 21.8259 31.7427 21.8259 31.3068C21.8259 30.871 21.4726 30.5176 21.0367 30.5176C20.6008 30.5176 20.2474 30.871 20.2474 31.3068C20.2474 31.7427 20.6008 32.0961 21.0367 32.0961Z" fill="white"/>
<path d="M16.4349 6.93877C16.8707 6.93877 17.2241 6.5854 17.2241 6.14952C17.2241 5.71363 16.8707 5.36029 16.4349 5.36029C15.999 5.36029 15.6456 5.71363 15.6456 6.14952C15.6456 6.5854 15.999 6.93877 16.4349 6.93877Z" fill="white"/>
<path d="M18.7494 11.2146C19.0218 11.2146 19.2426 10.9937 19.2426 10.7213C19.2426 10.4489 19.0218 10.228 18.7494 10.228C18.4769 10.228 18.2561 10.4489 18.2561 10.7213C18.2561 10.9937 18.4769 11.2146 18.7494 11.2146Z" fill="white"/>
<path d="M18.7494 27.2298C19.0218 27.2298 19.2426 27.009 19.2426 26.7365C19.2426 26.4641 19.0218 26.2433 18.7494 26.2433C18.4769 26.2433 18.2561 26.4641 18.2561 26.7365C18.2561 27.009 18.4769 27.2298 18.7494 27.2298Z" fill="white"/>
<path d="M26.736 19.2382C27.0084 19.2382 27.2292 19.0174 27.2292 18.7449C27.2292 18.4725 27.0084 18.2516 26.736 18.2516C26.4635 18.2516 26.2427 18.4725 26.2427 18.7449C26.2427 19.0174 26.4635 19.2382 26.736 19.2382Z" fill="white"/>
<path d="M10.7577 19.2382C11.0302 19.2382 11.251 19.0174 11.251 18.7449C11.251 18.4725 11.0302 18.2516 10.7577 18.2516C10.4853 18.2516 10.2645 18.4725 10.2645 18.7449C10.2645 19.0174 10.4853 19.2382 10.7577 19.2382Z" fill="white"/>
<path d="M24.4055 13.5826C24.6779 13.5826 24.8987 13.3617 24.8987 13.0893C24.8987 12.8169 24.6779 12.596 24.4055 12.596C24.133 12.596 23.9122 12.8169 23.9122 13.0893C23.9122 13.3617 24.133 13.5826 24.4055 13.5826Z" fill="white"/>
<path d="M13.0931 24.8945C13.3655 24.8945 13.5864 24.6736 13.5864 24.4012C13.5864 24.1288 13.3655 23.9079 13.0931 23.9079C12.8207 23.9079 12.5998 24.1288 12.5998 24.4012C12.5998 24.6736 12.8207 24.8945 13.0931 24.8945Z" fill="white"/>
<path d="M24.4055 24.8945C24.6779 24.8945 24.8987 24.6736 24.8987 24.4012C24.8987 24.1288 24.6779 23.9079 24.4055 23.9079C24.133 23.9079 23.9122 24.1288 23.9122 24.4012C23.9122 24.6736 24.133 24.8945 24.4055 24.8945Z" fill="white"/>
<path d="M13.0931 13.5826C13.3655 13.5826 13.5864 13.3617 13.5864 13.0893C13.5864 12.8169 13.3655 12.596 13.0931 12.596C12.8207 12.596 12.5998 12.8169 12.5998 13.0893C12.5998 13.3617 12.8207 13.5826 13.0931 13.5826Z" fill="white"/>
<path d="M22.0061 11.905C22.2786 11.905 22.4994 11.6842 22.4994 11.4118C22.4994 11.1393 22.2786 10.9185 22.0061 10.9185C21.7337 10.9185 21.5129 11.1393 21.5129 11.4118C21.5129 11.6842 21.7337 11.905 22.0061 11.905Z" fill="white"/>
<path d="M15.4926 26.5389C15.765 26.5389 15.9859 26.318 15.9859 26.0456C15.9859 25.7732 15.765 25.5523 15.4926 25.5523C15.2202 25.5523 14.9993 25.7732 14.9993 26.0456C14.9993 26.318 15.2202 26.5389 15.4926 26.5389Z" fill="white"/>
<path d="M26.0512 22.461C26.3236 22.461 26.5444 22.2402 26.5444 21.9678C26.5444 21.6953 26.3236 21.4745 26.0512 21.4745C25.7787 21.4745 25.5579 21.6953 25.5579 21.9678C25.5579 22.2402 25.7787 22.461 26.0512 22.461Z" fill="white"/>
<path d="M11.4524 15.9827C11.7248 15.9827 11.9457 15.7619 11.9457 15.4895C11.9457 15.217 11.7248 14.9962 11.4524 14.9962C11.18 14.9962 10.9591 15.217 10.9591 15.4895C10.9591 15.7619 11.18 15.9827 11.4524 15.9827Z" fill="white"/>
<path d="M26.2137 16.3448C26.4862 16.3448 26.707 16.1239 26.707 15.8515C26.707 15.5791 26.4862 15.3582 26.2137 15.3582C25.9413 15.3582 25.7205 15.5791 25.7205 15.8515C25.7205 16.1239 25.9413 16.3448 26.2137 16.3448Z" fill="white"/>
<path d="M11.285 22.099C11.5574 22.099 11.7782 21.8781 11.7782 21.6057C11.7782 21.3333 11.5574 21.1124 11.285 21.1124C11.0125 21.1124 10.7917 21.3333 10.7917 21.6057C10.7917 21.8781 11.0125 22.099 11.285 22.099Z" fill="white"/>
<path d="M21.6415 26.6706C21.9139 26.6706 22.1348 26.4497 22.1348 26.1773C22.1348 25.9049 21.9139 25.684 21.6415 25.684C21.3691 25.684 21.1482 25.9049 21.1482 26.1773C21.1482 26.4497 21.3691 26.6706 21.6415 26.6706Z" fill="white"/>
<path d="M15.8572 11.7738C16.1296 11.7738 16.3505 11.553 16.3505 11.2805C16.3505 11.0081 16.1296 10.7873 15.8572 10.7873C15.5848 10.7873 15.3639 11.0081 15.3639 11.2805C15.3639 11.553 15.5848 11.7738 15.8572 11.7738Z" fill="white"/>
<path d="M19.53 14.9295C19.6753 14.9295 19.7931 14.8118 19.7931 14.6665C19.7931 14.5212 19.6753 14.4034 19.53 14.4034C19.3847 14.4034 19.2669 14.5212 19.2669 14.6665C19.2669 14.8118 19.3847 14.9295 19.53 14.9295Z" fill="white"/>
<path d="M17.9485 23.0524C18.0938 23.0524 18.2116 22.9346 18.2116 22.7893C18.2116 22.644 18.0938 22.5262 17.9485 22.5262C17.8032 22.5262 17.6854 22.644 17.6854 22.7893C17.6854 22.9346 17.8032 23.0524 17.9485 23.0524Z" fill="white"/>
<path d="M22.8164 19.7637C22.9617 19.7637 23.0794 19.6459 23.0794 19.5006C23.0794 19.3553 22.9617 19.2375 22.8164 19.2375C22.6711 19.2375 22.5533 19.3553 22.5533 19.5006C22.5533 19.6459 22.6711 19.7637 22.8164 19.7637Z" fill="white"/>
<path d="M14.6622 18.2183C14.8075 18.2183 14.9252 18.1005 14.9252 17.9552C14.9252 17.81 14.8075 17.6922 14.6622 17.6922C14.5169 17.6922 14.3991 17.81 14.3991 17.9552C14.3991 18.1005 14.5169 18.2183 14.6622 18.2183Z" fill="white"/>
<path d="M22.1561 16.6725C22.3014 16.6725 22.4192 16.5547 22.4192 16.4094C22.4192 16.2641 22.3014 16.1464 22.1561 16.1464C22.0108 16.1464 21.893 16.2641 21.893 16.4094C21.893 16.5547 22.0108 16.6725 22.1561 16.6725Z" fill="white"/>
<path d="M15.3174 21.3094C15.4627 21.3094 15.5805 21.1916 15.5805 21.0463C15.5805 20.901 15.4627 20.7833 15.3174 20.7833C15.1721 20.7833 15.0543 20.901 15.0543 21.0463C15.0543 21.1916 15.1721 21.3094 15.3174 21.3094Z" fill="white"/>
<path d="M21.0771 22.4272C21.2224 22.4272 21.3402 22.3094 21.3402 22.1641C21.3402 22.0188 21.2224 21.9011 21.0771 21.9011C20.9318 21.9011 20.814 22.0188 20.814 22.1641C20.814 22.3094 20.9318 22.4272 21.0771 22.4272Z" fill="white"/>
<path d="M16.4014 15.5547C16.5467 15.5547 16.6645 15.4369 16.6645 15.2916C16.6645 15.1463 16.5467 15.0286 16.4014 15.0286C16.2561 15.0286 16.1383 15.1463 16.1383 15.2916C16.1383 15.4369 16.2561 15.5547 16.4014 15.5547Z" fill="white"/>
<path d="M21.1115 15.5874C21.2568 15.5874 21.3746 15.4696 21.3746 15.3243C21.3746 15.179 21.2568 15.0612 21.1115 15.0612C20.9662 15.0612 20.8484 15.179 20.8484 15.3243C20.8484 15.4696 20.9662 15.5874 21.1115 15.5874Z" fill="white"/>
<path d="M16.3718 22.3946C16.5171 22.3946 16.6349 22.2768 16.6349 22.1315C16.6349 21.9862 16.5171 21.8684 16.3718 21.8684C16.2265 21.8684 16.1088 21.9862 16.1088 22.1315C16.1088 22.2768 16.2265 22.3946 16.3718 22.3946Z" fill="white"/>
<path d="M22.1561 21.3421C22.3014 21.3421 22.4192 21.2243 22.4192 21.079C22.4192 20.9337 22.3014 20.8159 22.1561 20.8159C22.0108 20.8159 21.893 20.9337 21.893 21.079C21.893 21.2243 22.0108 21.3421 22.1561 21.3421Z" fill="white"/>
<path d="M15.3174 16.6392C15.4627 16.6392 15.5805 16.5215 15.5805 16.3762C15.5805 16.2309 15.4627 16.1131 15.3174 16.1131C15.1721 16.1131 15.0543 16.2309 15.0543 16.3762C15.0543 16.5215 15.1721 16.6392 15.3174 16.6392Z" fill="white"/>
<path d="M22.8164 18.251C22.9617 18.251 23.0794 18.1332 23.0794 17.9879C23.0794 17.8426 22.9617 17.7248 22.8164 17.7248C22.6711 17.7248 22.5533 17.8426 22.5533 17.9879C22.5533 18.1332 22.6711 18.251 22.8164 18.251Z" fill="white"/>
<path d="M14.6622 19.731C14.8075 19.731 14.9252 19.6132 14.9252 19.4679C14.9252 19.3226 14.8075 19.2048 14.6622 19.2048C14.5169 19.2048 14.3991 19.3226 14.3991 19.4679C14.3991 19.6132 14.5169 19.731 14.6622 19.731Z" fill="white"/>
<path d="M19.4956 23.0849C19.6409 23.0849 19.7587 22.9671 19.7587 22.8218C19.7587 22.6765 19.6409 22.5587 19.4956 22.5587C19.3503 22.5587 19.2325 22.6765 19.2325 22.8218C19.2325 22.9671 19.3503 23.0849 19.4956 23.0849Z" fill="white"/>
<path d="M17.9829 14.9295C18.1282 14.9295 18.246 14.8118 18.246 14.6665C18.246 14.5212 18.1282 14.4034 17.9829 14.4034C17.8376 14.4034 17.7199 14.5212 17.7199 14.6665C17.7199 14.8118 17.8376 14.9295 17.9829 14.9295Z" fill="white"/>
<path d="M103.118 37.2614V20.8338H104.409V27.4518C104.816 26.6382 105.426 25.9655 106.24 25.4335C107.053 24.886 108.007 24.6122 109.103 24.6122C110.558 24.6122 111.801 25.0815 112.834 26.0202C113.882 26.959 114.406 28.2262 114.406 29.8221V37.2614H113.116V30.2914C113.116 28.8833 112.709 27.7882 111.895 27.0059C111.082 26.208 110.088 25.809 108.915 25.809C107.616 25.809 106.537 26.2862 105.676 27.2406C104.831 28.1949 104.409 29.4231 104.409 30.9251V37.2614H103.118Z" fill="white"/>
<path d="M102.089 37.2142C100.274 37.6523 98.8976 37.5662 97.9589 36.9561C97.0358 36.3303 96.5743 35.1881 96.5743 33.5297L96.5978 25.973H93.7816V24.8231H96.5978V21.1386H97.865V24.8231H102.136V25.973H97.865V33.5063C97.865 34.7579 98.2092 35.5793 98.8976 35.9704C99.586 36.3615 100.65 36.3615 102.089 35.9704V37.2142Z" fill="white"/>
<path d="M91.5103 37.2614V20.8338H92.801V37.2614H91.5103Z" fill="white"/>
<path d="M83.3178 37.4493C82.0505 37.4493 80.9944 37.1364 80.1496 36.5106C79.3047 35.8848 78.8588 35.0164 78.8119 33.9056C78.765 32.7635 79.1874 31.817 80.0792 31.066C80.971 30.2994 82.426 29.9082 84.4442 29.8926L88.6685 29.8691V28.7896C88.6685 27.8039 88.2617 27.053 87.4481 26.5367C86.6502 26.0047 85.6567 25.7387 84.4677 25.7387C83.4664 25.7387 82.5902 25.9343 81.8393 26.3254C81.1039 26.7009 80.658 27.3189 80.5016 28.1794L79.2343 28.2029C79.3438 27.0451 79.8836 26.1612 80.8536 25.551C81.8393 24.9252 83.0361 24.6123 84.4442 24.6123C86.0088 24.6123 87.3073 24.9799 88.3399 25.7153C89.3882 26.435 89.9123 27.405 89.9123 28.6253V37.2615H88.6685V34.023C88.5277 34.3202 88.3477 34.6175 88.1287 34.9147C87.9253 35.212 87.6124 35.5797 87.19 36.0177C86.7676 36.4402 86.22 36.7844 85.5472 37.0503C84.8745 37.3163 84.1313 37.4493 83.3178 37.4493ZM83.3882 36.2994C84.8119 36.2994 86.0479 35.7752 87.0961 34.727C88.1443 33.6631 88.6685 32.3958 88.6685 30.9252H84.6085C82.9501 30.9408 81.7689 31.2537 81.0648 31.8639C80.3608 32.4584 80.0401 33.1468 80.1026 33.9291C80.1652 34.6644 80.5094 35.2433 81.1352 35.6657C81.761 36.0881 82.512 36.2994 83.3882 36.2994Z" fill="white"/>
<path d="M71.9934 37.4493C70.2098 37.4493 68.7001 36.8235 67.4641 35.5718C66.2437 34.3202 65.6336 32.8026 65.6336 31.019C65.6336 29.2511 66.2516 27.7413 67.4875 26.4897C68.7235 25.2381 70.2255 24.6123 71.9934 24.6123C73.6205 24.6123 75.0208 25.1677 76.1942 26.2785C77.3676 27.3737 78.0403 28.7192 78.2124 30.315C78.275 30.7374 78.2828 31.1207 78.2359 31.4649H66.9243C67.0025 32.8417 67.5267 33.9838 68.4967 34.8913C69.4823 35.7987 70.6479 36.2524 71.9934 36.2524C72.9165 36.2524 73.777 36.0334 74.5749 35.5953C75.3728 35.1416 76.0064 34.5314 76.4758 33.7648L77.7196 33.976C77.2033 35.0086 76.421 35.8456 75.3728 36.4871C74.3246 37.1286 73.1981 37.4493 71.9934 37.4493ZM66.9243 30.4089H76.9452C76.82 29.1103 76.2881 28.0151 75.3493 27.1234C74.4263 26.2316 73.2998 25.7857 71.9699 25.7857C70.6244 25.7857 69.4745 26.2316 68.5201 27.1234C67.5814 28.0151 67.0495 29.1103 66.9243 30.4089Z" fill="white"/>
<path d="M51.4389 37.2614V20.8338H52.7531V28.4374H63.0086V20.8338H64.3229V37.2614H63.0086V29.6343H52.7531V37.2614H51.4389Z" fill="white"/>
<path d="M100.397 17.6477C98.7077 17.6477 96.9867 17.1235 95.2344 16.0753V13.2826C95.8289 13.7833 96.6034 14.2448 97.5578 14.6672C98.5121 15.0896 99.4587 15.3009 100.397 15.3009C101.07 15.3009 101.618 15.1757 102.04 14.9254C102.478 14.675 102.697 14.3387 102.697 13.9162C102.697 13.5095 102.455 13.1809 101.97 12.9306C101.485 12.6646 100.663 12.4065 99.5056 12.1561C97.9724 11.8276 96.8381 11.3895 96.1027 10.8419C95.383 10.2787 95.0232 9.51207 95.0232 8.54206C95.0232 7.3843 95.5082 6.47687 96.4782 5.81976C97.4482 5.14701 98.6451 4.81064 100.069 4.81064C101.618 4.81064 103.214 5.26435 104.856 6.17178V8.6594C103.135 7.64245 101.539 7.13397 100.069 7.13397C99.3961 7.13397 98.8407 7.26696 98.4026 7.53293C97.9645 7.78326 97.7455 8.11963 97.7455 8.54206C97.7455 8.65157 97.7611 8.75327 97.7924 8.84714C97.8237 8.94101 97.8785 9.02706 97.9567 9.10529C98.0349 9.16787 98.1132 9.23045 98.1914 9.29303C98.2696 9.35562 98.3791 9.4182 98.5199 9.48078C98.6764 9.52771 98.8094 9.57465 98.9189 9.62159C99.0441 9.66852 99.2083 9.71546 99.4117 9.76239C99.6308 9.80933 99.8107 9.85627 99.9515 9.9032C100.108 9.93449 100.319 9.98143 100.585 10.044C100.867 10.0909 101.094 10.1379 101.266 10.1848C102.736 10.529 103.792 11.014 104.434 11.6398C105.075 12.25 105.396 13.0166 105.396 13.9397C105.396 15.1757 104.911 16.1066 103.941 16.7324C102.971 17.3426 101.79 17.6477 100.397 17.6477Z" fill="white"/>
<path d="M93.796 2.98044C93.4518 3.30899 93.0372 3.47327 92.5522 3.47327C92.0672 3.47327 91.6526 3.30899 91.3084 2.98044C90.9799 2.63624 90.8156 2.22164 90.8156 1.73663C90.8156 1.25163 90.9799 0.844849 91.3084 0.516296C91.6526 0.172099 92.0672 0 92.5522 0C93.0372 0 93.4518 0.172099 93.796 0.516296C94.1402 0.844849 94.3123 1.25163 94.3123 1.73663C94.3123 2.22164 94.1402 2.63624 93.796 2.98044ZM91.1676 17.4602V5.02216H93.8664V17.4602H91.1676Z" fill="white"/>
<path d="M85.2813 17.6477C83.5916 17.6477 81.8706 17.1235 80.1183 16.0753V13.2826C80.7128 13.7833 81.4873 14.2448 82.4417 14.6672C83.396 15.0896 84.3426 15.3009 85.2813 15.3009C85.954 15.3009 86.5016 15.1757 86.9241 14.9254C87.3621 14.675 87.5812 14.3387 87.5812 13.9162C87.5812 13.5095 87.3387 13.1809 86.8536 12.9306C86.3686 12.6646 85.5473 12.4065 84.3895 12.1561C82.8563 11.8276 81.722 11.3895 80.9866 10.8419C80.2669 10.2787 79.9071 9.51207 79.9071 8.54206C79.9071 7.3843 80.3921 6.47687 81.3621 5.81976C82.3321 5.14701 83.529 4.81064 84.9527 4.81064C86.5016 4.81064 88.0975 5.26435 89.7402 6.17178V8.6594C88.0192 7.64245 86.4234 7.13397 84.9527 7.13397C84.28 7.13397 83.7246 7.26696 83.2865 7.53293C82.8484 7.78326 82.6294 8.11963 82.6294 8.54206C82.6294 8.65157 82.645 8.75327 82.6763 8.84714C82.7076 8.94101 82.7624 9.02706 82.8406 9.10529C82.9188 9.16787 82.9971 9.23045 83.0753 9.29303C83.1535 9.35562 83.263 9.4182 83.4038 9.48078C83.5603 9.52771 83.6933 9.57465 83.8028 9.62159C83.928 9.66852 84.0922 9.71546 84.2956 9.76239C84.5147 9.80933 84.6946 9.85627 84.8354 9.9032C84.9918 9.93449 85.2031 9.98143 85.469 10.044C85.7506 10.0909 85.9775 10.1379 86.1496 10.1848C87.6203 10.529 88.6763 11.014 89.3178 11.6398C89.9593 12.25 90.28 13.0166 90.28 13.9397C90.28 15.1757 89.795 16.1066 88.825 16.7324C87.8549 17.3426 86.6737 17.6477 85.2813 17.6477Z" fill="white"/>
<path d="M73.0468 17.6477C71.2788 17.6477 69.7691 17.014 68.5174 15.7467C67.2814 14.4795 66.6634 12.9697 66.6634 11.2174C66.6634 9.44949 67.2814 7.93971 68.5174 6.68808C69.7691 5.43645 71.2788 4.81064 73.0468 4.81064C74.8147 4.81064 76.3166 5.44428 77.5526 6.71155C78.8042 7.96318 79.4301 9.46513 79.4301 11.2174C79.4301 12.9853 78.8042 14.5029 77.5526 15.7702C76.301 17.0218 74.799 17.6477 73.0468 17.6477ZM70.301 14.0101C71.052 14.7767 71.9672 15.16 73.0468 15.16C74.1263 15.16 75.0415 14.7767 75.7925 14.0101C76.5435 13.2278 76.919 12.2969 76.919 11.2174C76.919 10.1379 76.5435 9.21481 75.7925 8.44818C75.0415 7.66592 74.1263 7.27478 73.0468 7.27478C71.9672 7.27478 71.052 7.66592 70.301 8.44818C69.55 9.21481 69.1745 10.1379 69.1745 11.2174C69.1745 12.2969 69.55 13.2278 70.301 14.0101Z" fill="white"/>
<path d="M51.3946 17.4611V1.03345H56.1586L62.8236 15.2785V1.03345H65.5458V17.4611H60.8992L54.1169 2.91089V17.4611H51.3946Z" fill="white"/>
<path d="M118.14 37.4532C117.585 37.4532 117.136 37.2741 116.794 36.9159C116.452 36.5577 116.281 36.1183 116.281 35.5978C116.281 35.0661 116.455 34.6239 116.802 34.2713C117.15 33.9131 117.596 33.734 118.14 33.734C118.685 33.734 119.131 33.9131 119.478 34.2713C119.826 34.6295 120 35.0717 120 35.5978C120 36.1183 119.826 36.5577 119.478 36.9159C119.131 37.2741 118.685 37.4532 118.14 37.4532ZM117.013 36.7144C117.299 37.0167 117.675 37.1678 118.14 37.1678C118.606 37.1678 118.979 37.0167 119.26 36.7144C119.546 36.4122 119.689 36.04 119.689 35.5978C119.689 35.1556 119.543 34.7806 119.251 34.4728C118.965 34.165 118.595 34.011 118.14 34.011C117.68 34.011 117.307 34.1678 117.021 34.4812C116.735 34.789 116.592 35.1612 116.592 35.5978C116.592 36.04 116.732 36.4122 117.013 36.7144ZM117.434 36.5969V34.498H118.342C118.544 34.498 118.713 34.5651 118.847 34.6995C118.982 34.8338 119.049 34.9989 119.049 35.1948C119.049 35.3403 119.007 35.4719 118.923 35.5894C118.844 35.7014 118.738 35.7797 118.603 35.8245L119.091 36.5969H118.654L118.208 35.8749H117.804V36.5969H117.434ZM117.804 35.5306H118.326C118.427 35.5306 118.511 35.4999 118.578 35.4383C118.645 35.3711 118.679 35.2872 118.679 35.1864C118.679 35.0857 118.645 35.0045 118.578 34.9429C118.516 34.8814 118.438 34.8506 118.342 34.8506H117.804V35.5306Z" fill="white"/>
</svg>
