<svg width="24" height="24" viewBox="0 0 24 24" fill="none" xmlns="http://www.w3.org/2000/svg">
<circle opacity="0.1" cx="12" cy="12" r="12" transform="rotate(-180 12 12)" fill="black"/>
<path d="M10.1746 18.1312C10.2882 18.1279 10.3961 18.0805 10.4754 17.999L16.1629 12.3115C16.2449 12.2295 16.291 12.1182 16.291 12.0022C16.291 11.8862 16.2449 11.7749 16.1629 11.6929L10.4754 6.00535C10.435 5.96337 10.3868 5.92984 10.3333 5.90675C10.2799 5.88366 10.2224 5.87146 10.1642 5.87087C10.106 5.87028 10.0483 5.8813 9.99436 5.90331C9.94047 5.92531 9.89151 5.95784 9.85036 5.999C9.8092 6.04016 9.77666 6.08912 9.75466 6.14301C9.73266 6.1969 9.72163 6.25463 9.72223 6.31284C9.72282 6.37104 9.73502 6.42854 9.75811 6.48197C9.7812 6.53541 9.81472 6.58369 9.85671 6.62401L15.2349 12.0022L9.85671 17.3804C9.7936 17.4418 9.75051 17.5209 9.73308 17.6073C9.71566 17.6936 9.72472 17.7833 9.75907 17.8644C9.79341 17.9455 9.85146 18.0144 9.9256 18.062C9.99973 18.1096 10.0865 18.1337 10.1746 18.1312Z" fill="black"/>
</svg>
